HIERARCHY
ROOT Hips
{
	OFFSET 0.000000 0.000000 0.000000 
	CHANNELS 6 Xposition Yposition Zposition Zrotation Yrotation Xrotation
	JOINT LHipJoint
	{
		OFFSET 0.000000 0.000000 0.000000 
		CHANNELS 3 Zrotation Yrotation Xrotation
		JOINT LeftUpLeg
		{
			OFFSET 0.049174 -0.055197 0.022926 
			CHANNELS 3 Zrotation Yrotation Xrotation
			JOINT LeftLeg
			{
				OFFSET 0.075187 -0.206577 0.000000 
				CHANNELS 3 Zrotation Yrotation Xrotation
				JOINT LeftFoot
				{
					OFFSET 0.083177 -0.228528 0.000000 
					CHANNELS 3 Zrotation Yrotation Xrotation
					JOINT LeftToeBase
					{
						OFFSET 0.006522 -0.017919 0.066408 
						CHANNELS 3 Zrotation Yrotation Xrotation
						End Site
						{
							OFFSET 0.000000 -0.000000 0.034549 
						}
					}
				}
			}
		}
	}
	JOINT RHipJoint
	{
		OFFSET 0.000000 0.000000 0.000000 
		CHANNELS 3 Zrotation Yrotation Xrotation
		JOINT RightUpLeg
		{
			OFFSET -0.046656 -0.055197 0.022926 
			CHANNELS 3 Zrotation Yrotation Xrotation
			JOINT RightLeg
			{
				OFFSET -0.076145 -0.209206 0.000000 
				CHANNELS 3 Zrotation Yrotation Xrotation
				JOINT RightFoot
				{
					OFFSET -0.082175 -0.225773 0.000000 
					CHANNELS 3 Zrotation Yrotation Xrotation
					JOINT RightToeBase
					{
						OFFSET -0.008058 -0.022138 0.069332 
						CHANNELS 3 Zrotation Yrotation Xrotation
						End Site
						{
							OFFSET -0.000000 -0.000000 0.036391 
						}
					}
				}
			}
		}
	}
	JOINT LowerBack
	{
		OFFSET 0.000000 0.000000 0.000000 
		CHANNELS 3 Zrotation Yrotation Xrotation
		JOINT Spine
		{
			OFFSET -0.000011 0.066375 -0.007953 
			CHANNELS 3 Zrotation Yrotation Xrotation
			JOINT Spine1
			{
				OFFSET 0.001748 0.066993 -0.001037 
				CHANNELS 3 Zrotation Yrotation Xrotation
				JOINT Neck
				{
					OFFSET 0.000000 0.000000 0.000000 
					CHANNELS 3 Zrotation Yrotation Xrotation
					JOINT Neck1
					{
						OFFSET -0.003073 0.050852 0.007566 
						CHANNELS 3 Zrotation Yrotation Xrotation
						JOINT Head
						{
							OFFSET 0.003390 0.051888 -0.007078 
							CHANNELS 3 Zrotation Yrotation Xrotation
							End Site
							{
								OFFSET 0.001370 0.052583 -0.003294 
							}
						}
					}
				}
				JOINT LeftShoulder
				{
					OFFSET 0.000000 0.000000 0.000000 
					CHANNELS 3 Zrotation Yrotation Xrotation
					JOINT LeftArm
					{
						OFFSET 0.102846 0.024812 -0.021306 
						CHANNELS 3 Zrotation Yrotation Xrotation
						JOINT LeftForeArm
						{
							OFFSET 0.161034 -0.000000 -0.000000 
							CHANNELS 3 Zrotation Yrotation Xrotation
							JOINT LeftHand
							{
								OFFSET 0.117231 -0.000000 -0.000000 
								CHANNELS 3 Zrotation Yrotation Xrotation
								JOINT LeftFingerBase
								{
									OFFSET 0.000000 0.000000 0.000000 
									CHANNELS 3 Zrotation Yrotation Xrotation
									JOINT LeftHandIndex1
									{
										OFFSET 0.016537 -0.000000 0.000000 
										CHANNELS 3 Zrotation Yrotation Xrotation
										End Site
										{
											OFFSET 0.013332 -0.000000 0.000000 
										}
									}
								}
								JOINT LThumb
								{
									OFFSET 0.000000 0.000000 0.000000 
									CHANNELS 3 Zrotation Yrotation Xrotation
									End Site
									{
										OFFSET 0.013536 -0.000000 0.013536 
									}
								}
							}
						}
					}
				}
				JOINT RightShoulder
				{
					OFFSET 0.000000 0.000000 0.000000 
					CHANNELS 3 Zrotation Yrotation Xrotation
					JOINT RightArm
					{
						OFFSET -0.096067 0.033214 -0.013856 
						CHANNELS 3 Zrotation Yrotation Xrotation
						JOINT RightForeArm
						{
							OFFSET -0.165504 -0.000000 0.000000 
							CHANNELS 3 Zrotation Yrotation Xrotation
							JOINT RightHand
							{
								OFFSET -0.117545 -0.000000 -0.000000 
								CHANNELS 3 Zrotation Yrotation Xrotation
								JOINT RightFingerBase
								{
									OFFSET 0.000000 0.000000 0.000000 
									CHANNELS 3 Zrotation Yrotation Xrotation
									JOINT RightHandIndex1
									{
										OFFSET -0.023354 -0.000000 0.000000 
										CHANNELS 3 Zrotation Yrotation Xrotation
										End Site
										{
											OFFSET -0.018828 -0.000000 0.000000 
										}
									}
								}
								JOINT RThumb
								{
									OFFSET 0.000000 0.000000 0.000000 
									CHANNELS 3 Zrotation Yrotation Xrotation
									End Site
									{
										OFFSET -0.019116 -0.000000 0.019116 
									}
								}
							}
						}
					}
				}
			}
		}
	}
}
MOTION
Frames: 9
Frame Time: 0.008333
-0.275138 0.487831 -0.079700 -32.523899 60.108601 -19.484900 0.000000 0.000000 0.000000 -24.224400 -4.817400 -61.266899 10.666700 17.768101 61.694199 -0.090600 7.509900 -8.371900 0.770900 5.606300 15.646200 0.000000 0.000000 0.000000 18.609900 -13.235700 9.359800 -1.667000 -8.135000 23.124901 -0.342700 -1.718600 -11.821400 -3.681200 11.723600 -34.761101 3.548800 5.976000 16.138000 3.593800 8.959700 0.831300 -0.179500 4.298800 -8.153500 -6.330600 -4.674000 -21.752501 7.884800 -5.898700 13.459600 2.896400 -2.318000 8.160400 0.000000 0.000000 0.000000 -86.611298 18.749100 40.524601 136.865097 -49.821400 -99.196198 -0.000000 0.000000 -11.383000 18.545000 4.517900 1.513700 -7.125000 0.000000 -0.000000 -6.703400 34.682598 1.707600 0.000000 0.000000 0.000000 72.777603 -8.233100 39.268799 -140.992096 47.471001 -102.295403 0.000000 -0.000000 -12.355300 -22.172100 27.959000 -10.816800 7.125000 -0.000000 -0.000000 4.837700 -0.253200 4.833600 
-0.268072 0.489222 -0.074022 -33.503799 59.972301 -19.971201 0.000000 0.000000 0.000000 -23.271700 -4.838600 -60.810398 10.898900 17.885300 62.452801 -0.018400 6.381000 -8.605700 0.757000 5.556700 15.503400 0.000000 0.000000 0.000000 19.218800 -12.394800 10.433300 -1.519700 -7.784500 22.061501 -0.191200 -1.180400 -8.777900 -3.563100 11.555100 -34.175701 3.171400 6.416300 15.697200 3.712200 9.465500 0.814900 0.085400 4.567900 -8.002000 -5.576400 -4.590800 -21.727900 6.776200 -5.775300 12.943000 2.414600 -2.341700 7.910600 0.000000 0.000000 0.000000 -87.012901 18.680799 40.741901 135.836304 -50.352200 -98.407097 -0.000000 0.000000 -10.054700 15.433600 4.785600 1.319400 -7.125000 0.000000 -0.000000 -9.288000 34.822899 2.346600 0.000000 0.000000 0.000000 72.631203 -8.400000 39.578602 -141.222397 47.328800 -102.464897 0.000000 -0.000000 -12.214800 -22.294901 28.043699 -10.911200 7.125000 -0.000000 -0.000000 4.776200 -0.141400 4.781000 
-0.261438 0.490503 -0.068716 -36.610802 59.660599 -22.800800 0.000000 0.000000 0.000000 -21.099001 -5.031600 -59.895599 11.108900 17.988001 63.134800 0.029400 5.769100 -9.026400 0.731900 5.466000 15.242600 0.000000 0.000000 0.000000 21.032900 -11.478700 11.820600 -1.382900 -7.440900 21.028299 -0.070400 -0.938500 -5.447900 -3.277000 11.130500 -32.721298 4.368400 6.607800 16.179100 3.797200 9.983300 0.736200 -0.638300 4.768300 -8.167100 -5.606400 -4.694900 -21.913300 6.925400 -5.909400 12.679400 2.448900 -2.389800 7.868300 -0.000000 0.000000 0.000000 -86.757599 18.703699 41.262901 134.676407 -50.926102 -97.510300 -0.000000 0.000000 -9.259800 14.344100 4.863800 1.242100 -7.125000 0.000000 -0.000000 -10.190400 34.852798 2.572900 -0.000000 0.000000 0.000000 73.129700 -8.557500 39.738602 -141.427597 47.201000 -102.615601 0.000000 -0.000000 -13.483100 -21.644600 27.846300 -10.501100 7.125000 -0.000000 -0.000000 5.135200 -0.472900 5.113300 
-0.253881 0.492397 -0.064759 -36.927399 59.980000 -22.339500 0.000000 0.000000 0.000000 -20.700100 -5.713100 -59.333599 11.194400 18.028900 63.411301 0.085800 5.411800 -9.932400 0.649700 5.156100 14.354300 0.000000 0.000000 0.000000 20.989599 -10.874200 12.073900 -1.267500 -7.136100 20.119301 -0.000500 -0.877900 -1.353300 -2.840900 10.432900 -30.390200 4.568100 6.771600 15.812100 3.221900 10.164100 0.416700 -1.356500 4.827200 -8.160400 -6.185000 -4.814500 -22.208099 7.628800 -6.012500 12.727200 2.762400 -2.388100 7.984300 -0.000000 0.000000 0.000000 -86.235100 18.987000 42.185600 133.675705 -51.401001 -96.730797 -0.000000 0.000000 -10.504100 17.391600 5.467300 1.709400 -7.125000 0.000000 -0.000000 -7.765300 35.617901 1.803800 -0.000000 0.000000 0.000000 73.761200 -8.672200 39.343800 -140.706696 47.645599 -102.084801 0.000000 -0.000000 -12.756300 -19.202900 29.250200 -9.658300 7.125000 -0.000000 -0.000000 6.735300 0.502400 6.841400 
-0.246197 0.494063 -0.061025 -35.688099 61.134701 -20.513500 0.000000 0.000000 0.000000 -21.599701 -6.723600 -58.409199 11.167700 18.016199 63.325100 0.143100 5.131400 -10.829400 0.576900 4.863800 13.520400 0.000000 0.000000 0.000000 19.834299 -10.741700 12.059500 -1.206000 -6.967200 19.618401 -0.023400 -1.254300 2.727700 -2.483900 9.808500 -28.358801 3.689600 6.680600 15.254600 2.495500 9.782000 0.182600 -1.513500 4.655000 -8.127900 -6.149000 -4.638400 -22.412001 7.822500 -5.804900 12.699000 2.849700 -2.262700 7.999900 0.000000 0.000000 0.000000 -86.168800 19.195499 41.787701 132.549103 -51.914200 -95.847198 -0.000000 0.000000 -10.881000 17.043699 5.623800 1.720800 -7.125000 0.000000 -0.000000 -8.073600 35.762299 1.847900 0.000000 0.000000 0.000000 74.158600 -8.779300 40.467999 -140.246002 47.923500 -101.743500 0.000000 -0.000000 -12.898000 -18.997400 29.330601 -9.572500 7.125000 -0.000000 -0.000000 6.864100 0.546300 6.979400 
-0.238878 0.495244 -0.056697 -36.220501 62.095901 -20.485701 0.000000 0.000000 0.000000 -21.552601 -7.462000 -57.542999 11.168800 18.016701 63.328701 0.216800 4.428900 -11.556800 0.616100 5.023300 13.975000 0.000000 0.000000 0.000000 19.886999 -10.234500 12.117800 -1.171900 -6.871400 19.334801 -0.142200 -1.816300 6.721400 -2.362300 9.583200 -27.637199 3.494600 6.557600 14.913600 2.077700 9.530900 0.003100 -1.763000 4.530000 -8.096800 -5.834300 -4.489600 -22.403799 7.795700 -5.674800 12.427000 2.807100 -2.190200 7.888300 0.000000 -0.000000 0.000000 -86.384102 19.234400 41.765900 131.198898 -52.500401 -94.780197 -0.000000 0.000000 -11.546700 18.219801 6.028300 1.979900 -7.125000 0.000000 -0.000000 -7.147700 36.244499 1.548500 0.000000 -0.000000 0.000000 74.691498 -8.887500 41.352299 -139.629196 48.288101 -101.284401 0.000000 -0.000000 -13.035300 -18.717501 29.698999 -9.529200 7.125000 -0.000000 -0.000000 7.068700 0.868500 7.230000 
-0.231616 0.496466 -0.052122 -37.376801 62.917198 -21.112301 0.000000 0.000000 0.000000 -21.337099 -7.866200 -56.728500 11.182300 18.023100 63.372200 0.293400 3.736100 -12.303400 0.532300 4.675200 12.984400 0.000000 0.000000 0.000000 20.380400 -9.444200 12.136900 -1.166800 -6.857100 19.292700 -0.344400 -2.127500 10.552200 -2.311400 9.486700 -27.330000 3.387100 6.462200 14.648600 1.887100 9.359700 -0.134900 -1.846400 4.446300 -8.088100 -5.703500 -4.385200 -22.566799 7.758300 -5.553000 12.370600 2.788800 -2.126000 7.882600 0.000000 0.000000 0.000000 -86.689400 19.137400 41.852100 129.401093 -53.234200 -93.346901 -0.000000 0.000000 -11.073600 18.875500 6.299500 2.148500 -7.125000 0.000000 -0.000000 -6.633200 36.564499 1.383600 0.000000 0.000000 0.000000 75.191597 -9.304200 42.388599 -138.888901 48.714600 -100.730003 0.000000 -0.000000 -12.953400 -18.429300 30.256201 -9.531100 7.125000 -0.000000 -0.000000 7.299100 1.379400 7.533500 
-0.224403 0.498534 -0.045053 -38.084301 63.236599 -22.048599 0.000000 0.000000 0.000000 -21.138100 -6.718600 -55.396301 11.232700 18.047100 63.535099 0.404300 2.608900 -13.252100 0.427500 4.196300 11.629600 0.000000 0.000000 0.000000 21.323601 -7.983300 13.187500 -1.203000 -6.958800 19.593399 -0.556700 -2.631900 13.438500 -2.105400 9.082200 -26.052900 1.829200 6.477400 14.693600 2.203100 9.142300 0.027000 -0.636400 4.409000 -8.244100 -5.510900 -4.029900 -22.818300 7.596500 -5.094200 12.480800 2.765700 -1.908400 7.917900 -0.000000 -0.000000 0.000000 -87.147697 19.042500 40.922298 127.663002 -53.895699 -91.948402 -0.000000 0.000000 -9.805000 17.339899 6.067600 1.890300 -7.125000 0.000000 -0.000000 -7.886000 36.237301 1.712200 -0.000000 -0.000000 0.000000 75.095398 -9.541300 43.790100 -138.075302 49.169800 -100.116501 0.000000 -0.000000 -12.956700 -18.052601 30.645599 -9.432800 7.125000 -0.000000 -0.000000 7.560300 1.703300 7.849600 
-0.217284 0.500209 -0.039966 -38.930698 64.030800 -22.737101 0.000000 0.000000 0.000000 -21.147699 -6.521400 -54.331299 11.232000 18.046700 63.532600 0.484700 1.787800 -13.922500 0.393400 4.027300 11.153400 0.000000 0.000000 0.000000 22.140499 -6.434900 13.206400 -1.338300 -7.324800 20.681299 -0.762000 -3.301400 15.705700 -1.424000 7.546200 -21.344000 1.029600 6.348000 14.718600 2.294000 8.843400 0.051600 -0.050300 4.296700 -8.370500 -5.541600 -3.969700 -23.003901 7.535200 -4.979800 12.440600 2.764500 -1.858400 7.925400 -0.000000 0.000000 0.000000 -87.609497 18.684700 40.204102 126.083504 -54.457901 -90.667603 -0.000000 0.000000 -8.982800 14.886400 6.456500 1.712200 -7.125000 0.000000 -0.000000 -9.984200 36.499199 2.113200 -0.000000 0.000000 0.000000 74.749100 -9.690700 44.503899 -137.233505 49.626099 -99.477303 0.000000 -0.000000 -13.177300 -17.790899 30.212799 -9.172700 7.125000 -0.000000 -0.000000 7.661900 1.220100 7.893700 
